<svg width="24" height="24" viewBox="0 0 24 24" fill="none" xmlns="http://www.w3.org/2000/svg">
<path fill-rule="evenodd" clip-rule="evenodd" d="M20.7264 5.1504C20.7264 5.1504 18.2304 3.2208 15.2736 3L15.0144 3.528C17.6832 4.1712 18.9024 5.1024 20.1792 6.2448L20.0233 6.16509C17.8768 5.06732 15.7117 3.96 12 3.96C8.28828 3.96 6.12315 5.06732 3.97671 6.16509L3.8208 6.2448C5.0976 5.1024 6.5568 4.0656 8.9856 3.528L8.7264 3C5.6256 3.2976 3.2736 5.1504 3.2736 5.1504C3.2736 5.1504 0.48 9.1728 0 17.0352C2.8224 20.2608 7.0944 20.28 7.0944 20.28L7.9776 19.0992C6.4704 18.5808 4.752 17.6496 3.2736 15.96C5.04 17.2848 7.6992 18.36 12 18.36C16.3008 18.36 18.96 17.2848 20.7264 15.96C19.248 17.6496 17.5296 18.5808 16.0224 19.0992L16.9056 20.28C16.9056 20.28 21.1776 20.2608 24 17.0352C23.52 9.1728 20.7264 5.1504 20.7264 5.1504ZM8.64 15.48C7.584 15.48 6.72 14.4048 6.72 13.08C6.72 11.7552 7.584 10.68 8.64 10.68C9.696 10.68 10.56 11.7552 10.56 13.08C10.56 14.4048 9.696 15.48 8.64 15.48ZM13.44 13.08C13.44 14.4048 14.304 15.48 15.36 15.48C16.416 15.48 17.28 14.4048 17.28 13.08C17.28 11.7552 16.416 10.68 15.36 10.68C14.304 10.68 13.44 11.7552 13.44 13.08Z" fill="#8C9EFF"/>
</svg>
