<?xml version="1.0" standalone="no"?><!DOCTYPE svg PUBLIC "-//W3C//DTD SVG 1.1//EN" "http://www.w3.org/Graphics/SVG/1.1/DTD/svg11.dtd"><svg t="1640239982315" class="icon" viewBox="0 0 1024 1024" version="1.1" xmlns="http://www.w3.org/2000/svg" p-id="2058" xmlns:xlink="http://www.w3.org/1999/xlink" width="200" height="200"><defs><style type="text/css"></style></defs><path d="M895.996344 416.000412c35.339845 0 63.999719-28.659874 63.999719-63.999719v-63.999719c0-35.339845-28.659874-63.999719-63.999719-63.999718h-47.75979l103.739544-133.619413c10.739953-14.039938 8.079964-34.11985-5.939974-44.859803L895.216347 6.602211c-14.039938-10.759953-34.11985-8.079964-44.879803 5.939974L686.177266 224.001256H127.999719c-35.339845 0-63.999719 28.659874-63.999719 63.999718v63.999719c0 35.339845 28.659874 63.999719 63.999719 63.999719h409.118202l-149.059345 191.999156H127.999719c-35.339845 0-63.999719 28.659874-63.999719 63.999719v63.999719c0 35.339845 28.659874 63.999719 63.999719 63.999718h110.979512l-103.739544 133.619413c-10.739953 14.019938-8.079964 34.09985 5.939974 44.859803L191.999438 1017.397769c14.039938 10.759953 34.11985 8.079964 44.859802-5.939974L401.038519 799.998724H895.996344c35.339845 0 63.999719-28.659874 63.999719-63.999718v-63.999719c0-35.339845-28.659874-63.999719-63.999719-63.999719H550.097864l149.059345-191.999156H895.996344z" p-id="2059" fill="#ffffff"></path></svg>