<?xml version="1.0" encoding="iso-8859-1"?>
<!-- Generator: Adobe Illustrator 19.0.0, SVG Export Plug-In . SVG Version: 6.00 Build 0)  -->
<svg version="1.1" id="Layer_1" xmlns="http://www.w3.org/2000/svg" xmlns:xlink="http://www.w3.org/1999/xlink" x="0px" y="0px"
	 viewBox="0 0 501.551 501.551" style="enable-background:new 0 0 501.551 501.551;" xml:space="preserve">
<path style="fill:#FFD15C;" d="M415.869,501.551H0V85.682c106.58,9.404,205.845,55.38,283.167,132.702
	S406.465,394.971,415.869,501.551z"/>
<path style="fill:#FF7058;" d="M354.22,147.331C264.359,56.424,138.971,0,0,0v85.682c106.58,9.404,206.89,55.38,283.167,132.702
	c77.322,77.322,123.298,176.588,132.702,283.167h85.682C501.551,362.58,445.126,237.192,354.22,147.331z"/>
<g>
	<circle style="fill:#F8B64C;" cx="104.49" cy="408.555" r="22.988"/>
	<path style="fill:#F8B64C;" d="M415.869,501.551h-15.673c-9.404-103.445-54.335-197.486-128.522-271.673S103.445,111.804,0,101.355
		V85.682c106.58,9.404,205.845,55.38,283.167,132.702S406.465,394.971,415.869,501.551z"/>
</g>
<g>
	<path style="fill:#F2F2F2;" d="M73.143,332.278c0-13.584-11.494-25.078-25.078-25.078s-25.078,11.494-25.078,25.078
		c0,5.224,6.269,8.359,13.584,9.404v24.033h20.898v-24.033C66.873,339.592,73.143,336.457,73.143,332.278z"/>
	<path style="fill:#F2F2F2;" d="M311.38,387.657c10.449-8.359,12.539-24.033,3.135-34.482c-8.359-10.449-24.033-12.539-34.482-3.135
		c-4.18,3.135-2.09,9.404,2.09,16.718l-18.808,14.629l13.584,16.718l18.808-15.673C300.931,387.657,307.2,390.792,311.38,387.657z"
		/>
</g>
<g>
	<path style="fill:#FF7058;" d="M161.959,171.363c-12.539,0-22.988,10.449-22.988,22.988c0,12.539,10.449,22.988,22.988,22.988
		c12.539,0,22.988-10.449,22.988-22.988C185.992,181.812,175.543,171.363,161.959,171.363z M161.959,208.98
		c-8.359,0-14.629-6.269-14.629-14.629c0-8.359,6.269-14.629,14.629-14.629s14.629,6.269,14.629,14.629
		C176.588,202.71,170.318,208.98,161.959,208.98z"/>
	<path style="fill:#FF7058;" d="M161.959,408.555c-12.539,0-22.988,10.449-22.988,22.988s10.449,22.988,22.988,22.988
		c12.539,0,22.988-10.449,22.988-22.988C185.992,419.004,175.543,408.555,161.959,408.555z M161.959,446.171
		c-8.359,0-14.629-6.269-14.629-14.629c0-8.359,6.269-14.629,14.629-14.629s14.629,6.269,14.629,14.629
		C176.588,439.902,170.318,446.171,161.959,446.171z"/>
	<path style="fill:#FF7058;" d="M262.269,271.673c-12.539,0-22.988,10.449-22.988,22.988s10.449,22.988,22.988,22.988
		c12.539,0,22.988-10.449,22.988-22.988S274.808,271.673,262.269,271.673z M262.269,308.245c-8.359,0-14.629-6.269-14.629-14.629
		c0-8.359,6.269-14.629,14.629-14.629c8.359,0,14.629,6.269,14.629,14.629C276.898,301.975,270.629,308.245,262.269,308.245z"/>
</g>
<g>
	<circle style="fill:#F8B64C;" cx="90.906" cy="259.135" r="27.167"/>
	<circle style="fill:#F8B64C;" cx="291.527" cy="455.575" r="27.167"/>
	<path style="fill:#F8B64C;" d="M89.861,191.216c-1.045,4.18-5.224,6.269-9.404,5.225c-14.629-3.135-29.257,5.224-33.437,18.808
		c-1.045,4.18-5.224,6.269-9.404,5.224c-4.18-1.045-6.269-5.224-5.224-9.404c6.269-22.988,30.302-35.527,53.29-29.257
		C88.816,182.857,90.906,187.037,89.861,191.216z"/>
	<path style="fill:#F8B64C;" d="M206.89,350.041c-4.18-1.045-7.314-5.224-6.269-9.404c2.09-14.629-7.314-28.212-21.943-31.347
		c-4.18-1.045-7.314-4.18-6.269-9.404c1.045-4.18,4.18-7.314,9.404-6.269c22.988,4.18,38.661,26.122,35.527,49.11
		C214.204,347.951,211.069,351.086,206.89,350.041z"/>
	<path style="fill:#F8B64C;" d="M78.367,478.563c-3.135,3.135-8.359,2.09-11.494-1.045c-9.404-11.494-26.122-12.539-37.616-3.135
		c-3.135,3.135-8.359,2.09-11.494-1.045c-2.09-3.135-2.09-8.359,1.045-10.449c17.763-15.673,44.931-12.539,60.604,5.224
		C81.502,471.249,81.502,475.429,78.367,478.563z"/>
</g>
<g>
</g>
<g>
</g>
<g>
</g>
<g>
</g>
<g>
</g>
<g>
</g>
<g>
</g>
<g>
</g>
<g>
</g>
<g>
</g>
<g>
</g>
<g>
</g>
<g>
</g>
<g>
</g>
<g>
</g>
</svg>
