<?xml version="1.0" encoding="UTF-8" standalone="no"?>
<!DOCTYPE svg PUBLIC "-//W3C//DTD SVG 1.1//EN" "http://www.w3.org/Graphics/SVG/1.1/DTD/svg11.dtd">
<svg width="100%" height="100%" viewBox="0 0 100 100" version="1.1" xmlns="http://www.w3.org/2000/svg" xmlns:xlink="http://www.w3.org/1999/xlink" xml:space="preserve" xmlns:serif="http://www.serif.com/" style="fill-rule:evenodd;clip-rule:evenodd;stroke-linejoin:round;stroke-miterlimit:2;">
    <g transform="matrix(0.0947217,0,0,0.0947217,23.6804,23.6804)">
        <g transform="matrix(1,0,0,1,-250,-250)">
            <circle cx="250" cy="250" r="250" style="fill:rgb(232,65,66);"/>
            <path d="M338.2,256.5C346.9,241.5 360.8,241.5 369.5,256.5L423.4,351.2C432.1,366.2 425,378.4 407.7,378.4L299,378.4C281.9,378.4 274.8,366.2 283.3,351.2L338.2,256.5ZM233.9,74.2C242.6,59.2 256.3,59.2 265,74.2L277,95.9L305.3,145.7C312.2,159.9 312.2,176.6 305.3,190.8L210.2,355.6C201.5,369 187.2,377.5 171.2,378.4L92.3,378.4C75,378.4 67.9,366.4 76.6,351.2L233.9,74.2Z" style="fill:white;fill-rule:nonzero;"/>
        </g>
    </g>
    <g transform="matrix(0.1,0,0,0.1,75,75)">
        <g transform="matrix(1,0,0,1,-250,-250)">
            <g id="XMLID_4_" transform="matrix(1,0,0,1,749,-751)">
                <path d="M-349.2,1094.6C-399.5,1144.2 -449.4,1193.4 -498.7,1242C-547.9,1192.8 -597.3,1143.4 -645.7,1095C-628.8,1078 -610.9,1060.1 -592.7,1041.8C-562.9,1071.6 -531.8,1102.7 -499.2,1135.3C-493.8,1129.2 -489.3,1123.7 -484.4,1118.7C-459.9,1094 -435.1,1069.5 -410.7,1044.7C-406.1,1040 -403.5,1040.2 -399.1,1044.8C-384.7,1060 -369.9,1074.8 -355.2,1089.7C-353.7,1091.1 -352,1092.3 -349.2,1094.6ZM-404.2,961.4C-435.7,929.9 -467,898.6 -498.3,867.3C-531.2,899.5 -562.8,930.3 -594,960.7C-610.8,943.8 -629,925.6 -646.7,907.8C-597.7,858.8 -548.3,809.5 -498.1,759.3C-449.5,808.1 -399.9,858 -350.2,908C-368.2,925.9 -386.1,943.5 -404.2,961.4ZM-444,1000.6C-462.7,1019.4 -480.8,1037.6 -498.5,1055.4C-516.5,1037.3 -534.8,1018.9 -552.4,1001.2C-534.9,983.7 -516.3,965.2 -498.3,947.2C-480.7,964.6 -462,982.9 -444,1000.6ZM-311.8,1055.4C-329.5,1037.7 -347.5,1019.6 -364.8,1002.3C-346.8,984.4 -328.7,966.3 -310.4,948.1C-293.3,965.4 -275.3,983.5 -257.7,1001.3C-275.5,1019.1 -293.5,1037.1 -311.8,1055.4ZM-685.5,1055.6C-704.7,1036.5 -722.5,1018.6 -739.8,1001.4C-722.5,984.1 -704.5,966.1 -685.6,947.2C-668.4,964.5 -650.3,982.7 -633.9,999.1C-651.4,1018.3 -668.7,1037.2 -685.5,1055.6Z" style="fill:rgb(242,183,64);fill-rule:nonzero;"/>
            </g>
        </g>
    </g>
    <g transform="matrix(1.33498,0,0,1.33498,75,25)">
        <g transform="matrix(1,0,0,1,-19.2,-16.75)">
            <clipPath id="_clip1">
                <rect x="0" y="0" width="38.4" height="33.5"/>
            </clipPath>
            <g clip-path="url(#_clip1)">
                <g>
                    <path d="M29,10.2C28.3,9.8 27.4,9.8 26.6,10.2L21,13.5L17.2,15.6L11.7,18.9C11,19.3 10.1,19.3 9.3,18.9L5,16.3C4.3,15.9 3.8,15.1 3.8,14.2L3.8,9.2C3.8,8.4 4.2,7.6 5,7.1L9.3,4.6C10,4.2 10.9,4.2 11.7,4.6L16,7.2C16.7,7.6 17.2,8.4 17.2,9.3L17.2,12.6L21,10.4L21,7C21,6.2 20.6,5.4 19.8,4.9L11.8,0.2C11.1,-0.2 10.2,-0.2 9.4,0.2L1.2,5C0.4,5.4 0,6.2 0,7L0,16.4C0,17.2 0.4,18 1.2,18.5L9.3,23.2C10,23.6 10.9,23.6 11.7,23.2L17.2,20L21,17.8L26.5,14.6C27.2,14.2 28.1,14.2 28.9,14.6L33.2,17.1C33.9,17.5 34.4,18.3 34.4,19.2L34.4,24.2C34.4,25 34,25.8 33.2,26.3L29,28.8C28.3,29.2 27.4,29.2 26.6,28.8L22.3,26.3C21.6,25.9 21.1,25.1 21.1,24.2L21.1,21L17.3,23.2L17.3,26.5C17.3,27.3 17.7,28.1 18.5,28.6L26.6,33.3C27.3,33.7 28.2,33.7 29,33.3L37.1,28.6C37.8,28.2 38.3,27.4 38.3,26.5L38.3,17C38.3,16.2 37.9,15.4 37.1,14.9L29,10.2Z" style="fill:rgb(130,71,229);fill-rule:nonzero;"/>
                </g>
            </g>
        </g>
    </g>
    <g transform="matrix(0.1,0,0,0.1,25,75)">
        <g transform="matrix(1,0,0,1,-250,-250)">
            <path d="M274.2,173.6L364.3,121.6L364.3,225.6L274.2,173.6ZM364.3,395.5L245.6,464.1L126.9,395.6L126.9,275L245.6,343.5L364.3,275L364.3,395.5ZM126.9,121.6L217,173.6L126.9,225.6L126.9,121.6ZM259.9,198.3L350,250.2L259.9,302.2L259.9,198.3ZM231.3,302.2L141.3,250.2L231.3,198.2L231.3,302.2ZM350,96.8L245.6,157.1L141.1,96.8L245.6,36.5L350,96.8ZM98.4,88.5L98.4,412.1L245.6,497.1L392.8,412L392.8,88.5L245.6,3.5L98.4,88.5Z" style="fill:rgb(4,5,5);"/>
        </g>
    </g>
</svg>
